<svg xmlns="http://www.w3.org/2000/svg" width="368.619" height="374.078" viewBox="0 0 368.619 374.078">
  <g id="Group_4" data-name="Group 4" transform="translate(-10.202 -8.282)">
    <g id="Group_3" data-name="Group 3" transform="translate(10.202 8.282)">
      <path id="Path_3" data-name="Path 3" d="M163.062,127.7l3.926-5.617a1.359,1.359,0,0,0-1-2.133l-6.828-.592a1.36,1.36,0,0,0-1.35,1.929l2.9,6.209A1.36,1.36,0,0,0,163.062,127.7Z" transform="translate(49.252 36.495)" fill="#544a7b"/>
      <path id="Path_4" data-name="Path 4" d="M208.062,135.323l-5.729-3.762a1.359,1.359,0,0,0-2.1,1.059l-.393,6.842a1.36,1.36,0,0,0,1.969,1.292l6.12-3.081A1.358,1.358,0,0,0,208.062,135.323Z" transform="translate(66.244 41.324)" fill="#544a7b"/>
      <path id="Path_5" data-name="Path 5" d="M130.144,86.4l5.657,3.867a1.36,1.36,0,0,0,2.123-1.02l.519-6.832a1.359,1.359,0,0,0-1.943-1.329l-6.178,2.966A1.359,1.359,0,0,0,130.144,86.4Z" transform="translate(37.911 21.01)" fill="#544a7b"/>
      <path id="Path_6" data-name="Path 6" d="M275.513,271.146l-3.118-6.1a1.36,1.36,0,0,0-2.352-.121l-3.727,5.751a1.361,1.361,0,0,0,1.072,2.1l6.843.351A1.359,1.359,0,0,0,275.513,271.146Z" transform="translate(92.955 94.925)" fill="#544a7b"/>
      <path id="Path_7" data-name="Path 7" d="M270.966,78.74l.857-6.8a1.359,1.359,0,0,0-1.876-1.423l-6.317,2.658a1.359,1.359,0,0,0-.295,2.335l5.46,4.142A1.359,1.359,0,0,0,270.966,78.74Z" transform="translate(91.625 16.763)" fill="#544a7b"/>
      <path id="Path_8" data-name="Path 8" d="M204.687,100.277l-.125-6.851a1.36,1.36,0,0,0-2.061-1.139l-5.871,3.534a1.359,1.359,0,0,0,.044,2.354l6,3.317A1.359,1.359,0,0,0,204.687,100.277Z" transform="translate(64.686 25.502)" fill="#544a7b"/>
      <path id="Path_9" data-name="Path 9" d="M233.267,258.948l-4.327,5.314a1.36,1.36,0,0,0,.838,2.2l6.766,1.09a1.358,1.358,0,0,0,1.486-1.825l-2.437-6.4A1.36,1.36,0,0,0,233.267,258.948Z" transform="translate(77.853 92.565)" fill="#544a7b"/>
      <path id="Path_10" data-name="Path 10" d="M172.972,26.045l5.015-4.671a1.359,1.359,0,0,0-.528-2.294l-6.553-2.009a1.36,1.36,0,0,0-1.723,1.605l1.538,6.679A1.359,1.359,0,0,0,172.972,26.045Z" transform="translate(53.872 -4.764)" fill="#544a7b"/>
      <path id="Path_11" data-name="Path 11" d="M230.135,187.2l-6.332-2.621a1.359,1.359,0,0,0-1.868,1.434l.9,6.794a1.358,1.358,0,0,0,2.175.9l5.436-4.173A1.358,1.358,0,0,0,230.135,187.2Z" transform="translate(75.147 62.742)" fill="#544a7b"/>
      <path id="Path_12" data-name="Path 12" d="M70.086,196.7l.732,6.814a1.358,1.358,0,0,0,2.152.953l5.535-4.04a1.36,1.36,0,0,0-.251-2.342l-6.266-2.773A1.36,1.36,0,0,0,70.086,196.7Z" transform="translate(13.936 67.064)" fill="#544a7b"/>
      <path id="Path_13" data-name="Path 13" d="M128.986,165.671l-3.581-5.843a1.359,1.359,0,0,0-2.353.062l-3.269,6.024a1.36,1.36,0,0,0,1.229,2.008l6.851-.181A1.359,1.359,0,0,0,128.986,165.671Z" transform="translate(33.905 52.548)" fill="#544a7b"/>
      <path id="Path_14" data-name="Path 14" d="M229.407,19.716l3.213-6.052a1.36,1.36,0,0,0-1.249-2l-6.849.244a1.359,1.359,0,0,0-1.1,2.079l3.635,5.809A1.359,1.359,0,0,0,229.407,19.716Z" transform="translate(75.666 -6.918)" fill="#544a7b"/>
      <path id="Path_15" data-name="Path 15" d="M26.075,39.9l-4.361-5.287A1.36,1.36,0,0,0,19.392,35l-2.4,6.421a1.359,1.359,0,0,0,1.5,1.816L25.25,42.1A1.36,1.36,0,0,0,26.075,39.9Z" transform="translate(-7.499 2.131)" fill="#544a7b"/>
      <path id="Path_16" data-name="Path 16" d="M167.6,69.319l4.2,5.415a1.359,1.359,0,0,0,2.332-.32l2.589-6.345a1.359,1.359,0,0,0-1.442-1.861l-6.79.93A1.36,1.36,0,0,0,167.6,69.319Z" transform="translate(53.132 15.064)" fill="#544a7b"/>
      <path id="Path_17" data-name="Path 17" d="M80.582,25.275l1.828,6.6a1.359,1.359,0,0,0,2.279.591l4.806-4.886a1.359,1.359,0,0,0-.629-2.269L82.233,23.6A1.359,1.359,0,0,0,80.582,25.275Z" transform="translate(18.149 -2.127)" fill="#544a7b"/>
      <path id="Path_18" data-name="Path 18" d="M120.222,119.418l-6.853-.031a1.359,1.359,0,0,0-1.186,2.035l3.4,5.949a1.359,1.359,0,0,0,2.354.011l3.453-5.92A1.359,1.359,0,0,0,120.222,119.418Z" transform="translate(30.836 36.507)" fill="#544a7b"/>
      <path id="Path_19" data-name="Path 19" d="M167.4,161.424l-4.658,5.026a1.36,1.36,0,0,0,.695,2.251l6.682,1.521a1.359,1.359,0,0,0,1.6-1.726l-2.023-6.548A1.36,1.36,0,0,0,167.4,161.424Z" transform="translate(51.143 53.277)" fill="#544a7b"/>
      <path id="Path_20" data-name="Path 20" d="M18.5,253.808l-6.835-.516a1.359,1.359,0,0,0-1.327,1.943l2.969,6.177a1.359,1.359,0,0,0,2.347.178l3.866-5.659A1.361,1.361,0,0,0,18.5,253.808Z" transform="translate(-10.202 90.485)" fill="#544a7b"/>
      <path id="Path_21" data-name="Path 21" d="M112.195,261.139l4.926,4.762a1.36,1.36,0,0,0,2.265-.648l1.661-6.648a1.36,1.36,0,0,0-1.694-1.636l-6.589,1.886A1.359,1.359,0,0,0,112.195,261.139Z" transform="translate(30.746 91.947)" fill="#544a7b"/>
      <path id="Path_22" data-name="Path 22" d="M108.285,205.377,108,212.224a1.359,1.359,0,0,0,1.988,1.261l6.071-3.179a1.36,1.36,0,0,0,.1-2.353l-5.788-3.668A1.36,1.36,0,0,0,108.285,205.377Z" transform="translate(29.223 70.645)" fill="#544a7b"/>
      <path id="Path_23" data-name="Path 23" d="M68.509,103.886l-5.674-3.842a1.36,1.36,0,0,0-2.119,1.028l-.49,6.835a1.359,1.359,0,0,0,1.949,1.32l6.165-2.993A1.36,1.36,0,0,0,68.509,103.886Z" transform="translate(9.962 28.614)" fill="#544a7b"/>
      <path id="Path_24" data-name="Path 24" d="M198.193,203.78l-6.778-1.012a1.359,1.359,0,0,0-1.465,1.844l2.513,6.374a1.36,1.36,0,0,0,2.329.348l4.264-5.364A1.359,1.359,0,0,0,198.193,203.78Z" transform="translate(62.219 70.113)" fill="#544a7b"/>
      <path id="Path_25" data-name="Path 25" d="M37.225,266.186l-.431,6.839a1.36,1.36,0,0,0,1.962,1.3l6.137-3.048a1.36,1.36,0,0,0,.149-2.35l-5.708-3.791A1.358,1.358,0,0,0,37.225,266.186Z" transform="translate(0.517 95.17)" fill="#544a7b"/>
      <path id="Path_26" data-name="Path 26" d="M26.342,130.3l6.825.612a1.361,1.361,0,0,0,1.355-1.926l-2.885-6.217a1.359,1.359,0,0,0-2.345-.209l-3.941,5.605A1.359,1.359,0,0,0,26.342,130.3Z" transform="translate(-4.195 37.551)" fill="#544a7b"/>
      <path id="Path_27" data-name="Path 27" d="M137.47,43.691l3.5-5.892a1.36,1.36,0,0,0-1.153-2.053l-6.851-.084a1.358,1.358,0,0,0-1.2,2.023l3.353,5.977A1.359,1.359,0,0,0,137.47,43.691Z" transform="translate(38.731 2.755)" fill="#544a7b"/>
      <path id="Path_28" data-name="Path 28" d="M190.535,268.4l6.738-1.249a1.359,1.359,0,0,0,.786-2.22l-4.451-5.211a1.36,1.36,0,0,0-2.315.429l-2.287,6.46A1.36,1.36,0,0,0,190.535,268.4Z" transform="translate(61.846 92.885)" fill="#544a7b"/>
      <path id="Path_29" data-name="Path 29" d="M17.184,175.721l5.095-4.583a1.36,1.36,0,0,0-.488-2.3l-6.516-2.122a1.36,1.36,0,0,0-1.751,1.576l1.421,6.7A1.36,1.36,0,0,0,17.184,175.721Z" transform="translate(-8.876 55.557)" fill="#544a7b"/>
      <path id="Path_30" data-name="Path 30" d="M84.413,160.18l3.741-5.742a1.359,1.359,0,0,0-1.066-2.1l-6.843-.369a1.36,1.36,0,0,0-1.285,1.973l3.1,6.111A1.36,1.36,0,0,0,84.413,160.18Z" transform="translate(17.455 49.641)" fill="#544a7b"/>
      <path id="Path_31" data-name="Path 31" d="M267.475,199.867l6.412-2.416a1.359,1.359,0,0,0,.382-2.324l-5.3-4.345a1.359,1.359,0,0,0-2.2.831l-1.114,6.762A1.36,1.36,0,0,0,267.475,199.867Z" transform="translate(92.769 65.163)" fill="#544a7b"/>
      <path id="Path_32" data-name="Path 32" d="M200.79,45.729l6.459,2.288a1.36,1.36,0,0,0,1.792-1.528l-1.247-6.739a1.359,1.359,0,0,0-2.22-.786l-5.213,4.449A1.36,1.36,0,0,0,200.79,45.729Z" transform="translate(66.263 3.955)" fill="#544a7b"/>
      <path id="Path_33" data-name="Path 33" d="M42.223,17.651l-.406,6.84a1.359,1.359,0,0,0,1.966,1.3l6.127-3.069a1.359,1.359,0,0,0,.139-2.35L44.329,16.6A1.36,1.36,0,0,0,42.223,17.651Z" transform="translate(2.542 -5.022)" fill="#544a7b"/>
      <path id="Path_34" data-name="Path 34" d="M24.273,86.267l.467-6.836a1.359,1.359,0,0,0-1.953-1.313l-6.155,3.014a1.359,1.359,0,0,0-.16,2.349L22.159,87.3A1.358,1.358,0,0,0,24.273,86.267Z" transform="translate(-7.917 19.813)" fill="#544a7b"/>
      <path id="Path_35" data-name="Path 35" d="M125.577,16.631l1.329-6.724a1.36,1.36,0,0,0-1.772-1.55l-6.487,2.211a1.359,1.359,0,0,0-.456,2.31l5.156,4.512A1.36,1.36,0,0,0,125.577,16.631Z" transform="translate(33.143 -8.282)" fill="#544a7b"/>
      <path id="Path_36" data-name="Path 36" d="M254.959,157.216l3.484,5.9a1.36,1.36,0,0,0,2.354-.022l3.369-5.967a1.359,1.359,0,0,0-1.2-2.027l-6.853.065A1.36,1.36,0,0,0,254.959,157.216Z" transform="translate(88.388 50.903)" fill="#544a7b"/>
      <path id="Path_37" data-name="Path 37" d="M259.987,231.563l4.936,4.755a1.359,1.359,0,0,0,2.262-.652l1.65-6.651a1.359,1.359,0,0,0-1.7-1.633l-6.585,1.9A1.358,1.358,0,0,0,259.987,231.563Z" transform="translate(90.324 80.02)" fill="#544a7b"/>
      <path id="Path_38" data-name="Path 38" d="M51.836,167.5l-6.076,3.17a1.359,1.359,0,0,0-.1,2.352l5.784,3.678a1.359,1.359,0,0,0,2.086-1.09l.293-6.846A1.359,1.359,0,0,0,51.836,167.5Z" transform="translate(3.838 55.841)" fill="#544a7b"/>
      <path id="Path_39" data-name="Path 39" d="M62.491,232.419,60.953,239.1a1.36,1.36,0,0,0,1.724,1.605l6.551-2.008a1.36,1.36,0,0,0,.528-2.3l-5.015-4.67A1.359,1.359,0,0,0,62.491,232.419Z" transform="translate(10.243 81.647)" fill="#544a7b"/>
      <path id="Path_40" data-name="Path 40" d="M250.582,118.5l4.484,5.183a1.359,1.359,0,0,0,2.312-.443l2.246-6.474a1.359,1.359,0,0,0-1.541-1.781l-6.729,1.291A1.359,1.359,0,0,0,250.582,118.5Z" transform="translate(86.567 34.721)" fill="#544a7b"/>
      <path id="Path_41" data-name="Path 41" d="M85.6,276.047l-1.041-6.774a1.359,1.359,0,0,0-2.194-.853l-5.344,4.288a1.36,1.36,0,0,0,.358,2.328l6.386,2.485A1.359,1.359,0,0,0,85.6,276.047Z" transform="translate(16.527 96.464)" fill="#544a7b"/>
      <path id="Path_42" data-name="Path 42" d="M25.928,219.777,29.1,213.7a1.358,1.358,0,0,0-1.261-1.987l-6.847.289a1.359,1.359,0,0,0-1.09,2.086l3.673,5.785A1.36,1.36,0,0,0,25.928,219.777Z" transform="translate(-6.378 73.726)" fill="#544a7b"/>
      <path id="Path_43" data-name="Path 43" d="M90.152,65.287l-6.847-.3a1.359,1.359,0,0,0-1.266,1.985l3.163,6.08a1.36,1.36,0,0,0,2.353.1l3.683-5.778A1.36,1.36,0,0,0,90.152,65.287Z" transform="translate(18.695 14.576)" fill="#544a7b"/>
      <path id="Path_44" data-name="Path 44" d="M155.892,258.245l5.41-4.207a1.359,1.359,0,0,0-.321-2.332l-6.349-2.582a1.359,1.359,0,0,0-1.858,1.445l.937,6.788A1.359,1.359,0,0,0,155.892,258.245Z" transform="translate(47.267 88.765)" fill="#544a7b"/>
      <path id="Path_45" data-name="Path 45" d="M149.188,207.138l-1.489,6.689a1.36,1.36,0,0,0,1.736,1.593l6.537-2.057a1.359,1.359,0,0,0,.511-2.3l-5.05-4.633A1.359,1.359,0,0,0,149.188,207.138Z" transform="translate(45.213 71.451)" fill="#544a7b"/>
      <path id="Path_46" data-name="Path 46" d="M233.155,71.374,227.372,67.7a1.36,1.36,0,0,0-2.088,1.09l-.29,6.846a1.36,1.36,0,0,0,1.988,1.263l6.074-3.171A1.36,1.36,0,0,0,233.155,71.374Z" transform="translate(76.385 15.584)" fill="#544a7b"/>
      <path id="Path_47" data-name="Path 47" d="M269.212,32.9l-2.31-6.452a1.361,1.361,0,0,0-2.318-.421l-4.431,5.228a1.359,1.359,0,0,0,.794,2.216l6.742,1.225A1.359,1.359,0,0,0,269.212,32.9Z" transform="translate(90.428 -1.324)" fill="#544a7b"/>
    </g>
  </g>
</svg>
