<svg xmlns="http://www.w3.org/2000/svg" width="42.133" height="44.763" viewBox="0 0 42.133 44.763">
  <g id="file" transform="translate(-14.885 0.5)">
    <path id="Path_14892" data-name="Path 14892" d="M77.442,67.374H64.525a.641.641,0,1,0,0,1.282H77.442a.641.641,0,1,0,0-1.282Z" transform="translate(-44.354 -61.615)" stroke="#000" stroke-width="1"/>
    <path id="Path_14893" data-name="Path 14893" d="M77.442,116.75H64.525a.641.641,0,1,0,0,1.282H77.442a.641.641,0,1,0,0-1.282Z" transform="translate(-44.354 -106.771)" stroke="#000" stroke-width="1"/>
    <path id="Path_14894" data-name="Path 14894" d="M259.6,219.373H244.117a3.19,3.19,0,0,0-3.186,3.186V241.18a3.19,3.19,0,0,0,3.186,3.186H259.6a3.19,3.19,0,0,0,3.186-3.186V222.559a3.19,3.19,0,0,0-3.186-3.186Zm1.9,21.807a1.906,1.906,0,0,1-1.9,1.9H244.117a1.906,1.906,0,0,1-1.9-1.9V222.559a1.906,1.906,0,0,1,1.9-1.9H259.6a1.906,1.906,0,0,1,1.9,1.9V241.18Z" transform="translate(-206.268 -200.622)" stroke="#000" stroke-width="1"/>
    <path id="Path_14895" data-name="Path 14895" d="M288.71,259.534H275.27a1.392,1.392,0,0,0-1.391,1.391v2.663a1.392,1.392,0,0,0,1.391,1.391h13.44a1.392,1.392,0,0,0,1.391-1.391v-2.663A1.392,1.392,0,0,0,288.71,259.534Zm.109,4.054a.109.109,0,0,1-.109.109H275.27a.109.109,0,0,1-.109-.109v-2.663a.109.109,0,0,1,.109-.109h13.44a.109.109,0,0,1,.109.109v2.663Z" transform="translate(-236.4 -237.351)" stroke="#000" stroke-width="1"/>
    <path id="Path_14896" data-name="Path 14896" d="M277.27,344.594h-1.78a1.614,1.614,0,0,0-1.612,1.612v1.78a1.614,1.614,0,0,0,1.612,1.612h1.78a1.614,1.614,0,0,0,1.612-1.612v-1.78A1.614,1.614,0,0,0,277.27,344.594Zm.33,3.392a.331.331,0,0,1-.33.33h-1.78a.331.331,0,0,1-.33-.33v-1.78a.33.33,0,0,1,.33-.33h1.78a.331.331,0,0,1,.33.33Z" transform="translate(-236.399 -315.14)" stroke="#000" stroke-width="1"/>
    <path id="Path_14897" data-name="Path 14897" d="M342.89,344.594h-1.78a1.614,1.614,0,0,0-1.612,1.612v1.78a1.614,1.614,0,0,0,1.612,1.612h1.78a1.614,1.614,0,0,0,1.612-1.612v-1.78A1.614,1.614,0,0,0,342.89,344.594Zm.33,3.392a.331.331,0,0,1-.33.33h-1.78a.331.331,0,0,1-.33-.33v-1.78a.331.331,0,0,1,.33-.33h1.78a.331.331,0,0,1,.33.33Z" transform="translate(-296.41 -315.14)" stroke="#000" stroke-width="1"/>
    <path id="Path_14898" data-name="Path 14898" d="M408.51,344.594h-1.78a1.614,1.614,0,0,0-1.612,1.612v1.78a1.614,1.614,0,0,0,1.612,1.612h1.78a1.614,1.614,0,0,0,1.612-1.612v-1.78A1.614,1.614,0,0,0,408.51,344.594Zm.33,3.392a.331.331,0,0,1-.33.33h-1.78a.331.331,0,0,1-.33-.33v-1.78a.33.33,0,0,1,.33-.33h1.78a.331.331,0,0,1,.33.33Z" transform="translate(-356.421 -315.14)" stroke="#000" stroke-width="1"/>
    <path id="Path_14899" data-name="Path 14899" d="M277.27,414.643h-1.78a1.614,1.614,0,0,0-1.612,1.612v1.78a1.614,1.614,0,0,0,1.612,1.612h1.78a1.614,1.614,0,0,0,1.612-1.612v-1.78A1.614,1.614,0,0,0,277.27,414.643Zm.33,3.392a.331.331,0,0,1-.33.33h-1.78a.331.331,0,0,1-.33-.33v-1.78a.33.33,0,0,1,.33-.33h1.78a.331.331,0,0,1,.33.33Z" transform="translate(-236.399 -379.202)" stroke="#000" stroke-width="1"/>
    <path id="Path_14900" data-name="Path 14900" d="M408.51,414.643h-1.78a1.614,1.614,0,0,0-1.612,1.612v1.78a1.614,1.614,0,0,0,1.612,1.612h1.78a1.614,1.614,0,0,0,1.612-1.612v-1.78A1.614,1.614,0,0,0,408.51,414.643Zm.33,3.392a.331.331,0,0,1-.33.33h-1.78a.331.331,0,0,1-.33-.33v-1.78a.33.33,0,0,1,.33-.33h1.78a.331.331,0,0,1,.33.33Z" transform="translate(-356.421 -379.202)" stroke="#000" stroke-width="1"/>
    <path id="Path_14901" data-name="Path 14901" d="M32.477,42.48H18.289a1.624,1.624,0,0,1-1.622-1.622V2.9a1.624,1.624,0,0,1,1.622-1.622H38.824V8.91a2.353,2.353,0,0,0,2.351,2.351H48.8v5.148a.641.641,0,0,0,1.282,0V10.62a.641.641,0,0,0-.188-.453L39.918.188A.641.641,0,0,0,39.465,0H18.289a2.907,2.907,0,0,0-2.9,2.9V40.859a2.907,2.907,0,0,0,2.9,2.9H32.477a.641.641,0,0,0,0-1.282ZM40.106,8.91V2.189l7.79,7.79H41.175A1.07,1.07,0,0,1,40.106,8.91Z" stroke="#000" stroke-width="1"/>
    <path id="Path_14902" data-name="Path 14902" d="M342.89,414.643h-1.78a1.614,1.614,0,0,0-1.612,1.612v1.78a1.614,1.614,0,0,0,1.612,1.612h1.78a1.614,1.614,0,0,0,1.612-1.612v-1.78A1.614,1.614,0,0,0,342.89,414.643Zm.33,3.392a.331.331,0,0,1-.33.33h-1.78a.331.331,0,0,1-.33-.33v-1.78a.331.331,0,0,1,.33-.33h1.78a.331.331,0,0,1,.33.33Z" transform="translate(-296.41 -379.202)" stroke="#000" stroke-width="1"/>
  </g>
</svg>
