<svg xmlns="http://www.w3.org/2000/svg" width="40.911" height="41.117" viewBox="0 0 40.911 41.117">
  <g id="iconfinder_phone1_172517" transform="translate(0.858 1.819)">
    <rect id="Rectangle_788" data-name="Rectangle 788" width="38.957" height="38.162" transform="translate(0 -0.101)" fill="none"/>
    <path id="Path_5920" data-name="Path 5920" d="M23.466,27.338s3.113-1.782,3.929-2.211a2.336,2.336,0,0,1,2.166-.226c.774.474,7.277,4.8,7.824,5.182a1.853,1.853,0,0,1,.058,2.553c-.75,1.073-4.208,5.318-5.674,5.273s-7.571-.181-19.08-11.693S1.047,8.6,1,7.135,5.2,2.208,6.271,1.458a1.877,1.877,0,0,1,2.554.06c.434.6,4.709,7.082,5.18,7.825a2.311,2.311,0,0,1-.226,2.168c-.428.815-2.21,3.929-2.21,3.929a38.182,38.182,0,0,0,5.506,6.391A38.363,38.363,0,0,0,23.466,27.338Z" transform="translate(0.143 -0.611)" fill="none" stroke="#000" stroke-miterlimit="10" stroke-width="4"/>
  </g>
</svg>
