<svg xmlns="http://www.w3.org/2000/svg" width="63.683" height="42.455" viewBox="0 0 63.683 42.455">
  <g id="Group_13076" data-name="Group 13076" transform="translate(-159.77 -1370.076)">
    <path id="Path_5999" data-name="Path 5999" d="M156.053,499.565H105.637A6.637,6.637,0,0,1,99,492.935V463.747a6.644,6.644,0,0,1,6.637-6.637h50.415a6.644,6.644,0,0,1,6.63,6.637v29.188A6.637,6.637,0,0,1,156.053,499.565Zm-50.415-39.8a3.991,3.991,0,0,0-3.984,3.984v29.188a3.984,3.984,0,0,0,3.984,3.977h50.415a3.977,3.977,0,0,0,3.977-3.977V463.747a3.984,3.984,0,0,0-3.977-3.984Z" transform="translate(60.77 912.966)" fill="#333"/>
    <path id="Path_6000" data-name="Path 6000" d="M161.359,478.974H100.33A1.33,1.33,0,0,1,99,477.651v-7.96a1.33,1.33,0,0,1,1.33-1.33h61.029a1.33,1.33,0,0,1,1.323,1.33v7.96a1.323,1.323,0,0,1-1.323,1.323Zm-59.706-2.653h58.376v-5.307H101.653Z" transform="translate(60.77 909.676)" fill="#333"/>
    <path id="Path_6001" data-name="Path 6001" d="M127.461,497.262H111.54a1.33,1.33,0,1,1,0-2.653h15.921a1.33,1.33,0,0,1,0,2.653Z" transform="translate(57.52 902.002)" fill="#333"/>
    <path id="Path_6002" data-name="Path 6002" d="M127.461,504.762H111.54a1.33,1.33,0,1,1,0-2.653h15.921a1.33,1.33,0,0,1,0,2.653Z" transform="translate(57.52 899.809)" fill="#333"/>
    <path id="Path_6003" data-name="Path 6003" d="M169.387,501.474h-2.653a3.984,3.984,0,0,1-3.984-3.977v-2.653a3.991,3.991,0,0,1,3.984-3.984h2.653a3.984,3.984,0,0,1,3.977,3.984V497.5A3.977,3.977,0,0,1,169.387,501.474Zm-2.653-7.96a1.33,1.33,0,0,0-1.33,1.33V497.5a1.33,1.33,0,0,0,1.33,1.323h2.653a1.323,1.323,0,0,0,1.323-1.323v-2.653a1.33,1.33,0,0,0-1.323-1.33Z" transform="translate(42.128 903.097)" fill="#333"/>
  </g>
</svg>
