<svg xmlns="http://www.w3.org/2000/svg" width="88.58" height="60" viewBox="0 0 88.58 60">
  <path id="Path_6004" data-name="Path 6004" d="M176.69,620.11H107.31a9.62,9.62,0,0,0-9.6,9.6v40.81a9.6,9.6,0,0,0,9.6,9.59h69.38a9.6,9.6,0,0,0,9.6-9.59V629.71A9.62,9.62,0,0,0,176.69,620.11Zm-76.12,15.61h82.86v5.93H100.57ZM107.31,623h69.38a6.75,6.75,0,0,1,6.74,6.74v3.15H100.57v-3.15A6.75,6.75,0,0,1,107.31,623Zm69.38,54.29H107.31a6.76,6.76,0,0,1-6.74-6.74v-26h82.86v26a6.76,6.76,0,0,1-6.74,6.74Z" transform="translate(-97.71 -620.11)" fill="#333"/>
</svg>
