<svg xmlns="http://www.w3.org/2000/svg" width="45.545" height="45.585" viewBox="0 0 45.545 45.585">
  <path id="Union_1" data-name="Union 1" d="M12.059,45.545H6a6,6,0,0,1-6-6V24.574q0-.037,0-.075V6.006A6.008,6.008,0,0,1,6,0V.005H33a1.63,1.63,0,0,1,.482.034h6.063a6,6,0,0,1,6,6V21.011q0,.037,0,.074V39.58a6.008,6.008,0,0,1-6,6v0H12.545c-.043,0-.085,0-.127,0A1.628,1.628,0,0,1,12.059,45.545ZM3.29,5.965v33.58A2.709,2.709,0,0,0,6,42.255H39.58a2.621,2.621,0,0,0,2.675-2.635V6.04a2.71,2.71,0,0,0-2.71-2.71H5.965A2.709,2.709,0,0,0,3.582,4.748,2.708,2.708,0,0,0,3.29,5.965Z" fill="#1c1c1c"/>
</svg>
