<svg xmlns="http://www.w3.org/2000/svg" width="51.923" height="45.585" viewBox="0 0 51.923 45.585">
  <g id="Group_66121" data-name="Group 66121" transform="translate(-180.77 -1712.716)">
    <path id="Path_6008" data-name="Path 6008" d="M159.54,810.87H126a6,6,0,0,1-6-6V771.33a6,6,0,0,1,6-6h27a1.63,1.63,0,1,1,0,3.25H126a2.72,2.72,0,0,0-2.71,2.71v33.58a2.71,2.71,0,0,0,2.71,2.71h33.58a2.71,2.71,0,0,0,2.71-2.71V786.5a1.63,1.63,0,1,1,3.25,0v18.41a6,6,0,0,1-6,6Z" transform="translate(60.77 947.391)" fill="#1c1c1c"/>
    <path id="Path_6009" data-name="Path 6009" d="M146.54,792.45a1.6,1.6,0,0,1-1.15-.47l-9.75-9.75a1.64,1.64,0,0,1,0-2.3,1.62,1.62,0,0,1,2.3,0l8.6,8.6,22.68-22.68a1.63,1.63,0,0,1,2.3,2.3L147.69,792a1.6,1.6,0,0,1-1.15.47Z" transform="translate(60.77 947.391)" fill="#1c1c1c"/>
  </g>
</svg>
