<svg xmlns="http://www.w3.org/2000/svg" width="18.569" height="17.422" viewBox="0 0 18.569 17.422">
  <g id="iconfinder__53ui_2303158" transform="translate(-2.839 -4.152)">
    <path id="Path_5943" data-name="Path 5943" d="M6.73,21.96a3.48,3.48,0,0,1-3.41-4.176A3.563,3.563,0,0,1,6.855,15H7.948v6.96Z" transform="translate(0 -3.17)" fill="none" stroke="#000" stroke-linecap="round" stroke-linejoin="round" stroke-width="0.8"/>
    <path id="Path_5944" data-name="Path 5944" d="M23.218,21.96a3.48,3.48,0,0,0,3.41-4.176A3.563,3.563,0,0,0,23.093,15H22v6.96Z" transform="translate(-5.701 -3.17)" fill="none" stroke="#000" stroke-linecap="round" stroke-linejoin="round" stroke-width="0.8"/>
    <path id="Path_5945" data-name="Path 5945" d="M7,11.83v-.821a6.34,6.34,0,0,1,4.809-6.264,6.264,6.264,0,0,1,7.718,6.118v.967" transform="translate(-1.14)" fill="none" stroke="#000" stroke-linecap="round" stroke-linejoin="round" stroke-width="0.8"/>
    <path id="Path_5946" data-name="Path 5946" d="M10,25h0a2.088,2.088,0,0,0,2.088,2.088" transform="translate(-2.052 -6.21)" fill="none" stroke="#000" stroke-linecap="round" stroke-linejoin="round" stroke-width="0.8"/>
    <circle id="Ellipse_150" data-name="Ellipse 150" cx="0.696" cy="0.696" r="0.696" transform="translate(11.427 20.182)"/>
    <line id="Line_129" data-name="Line 129" y2="6.264" transform="translate(6.208 12.178)" fill="none" stroke="#000" stroke-linecap="round" stroke-linejoin="round" stroke-width="0.8"/>
    <rect id="Rectangle_799" data-name="Rectangle 799" width="1.392" height="6.96" transform="translate(16.299 11.83)"/>
  </g>
</svg>
