<svg xmlns="http://www.w3.org/2000/svg" width="36.914" height="39.95" viewBox="0 0 36.914 39.95">
  <g id="iconfinder_12_date_calender_love_romance_wedding_valentine_2909019" transform="translate(1.5 1.602)">
    <path id="Path_5922" data-name="Path 5922" d="M42.914,20V38.431L35.541,45.8H11.949A2.949,2.949,0,0,1,9,42.855V20Z" transform="translate(-9 -8.956)" fill="none" stroke="#000" stroke-linecap="round" stroke-linejoin="round" stroke-width="3"/>
    <path id="Path_5923" data-name="Path 5923" d="M36.623,27.1a5.633,5.633,0,0,0-7.97,0h0a5.633,5.633,0,0,0-7.97,0c-2.212,2.212-1.585,6.156.14,8.744s6.016,5.9,7.373,6.879a.737.737,0,0,0,.863,0c1.371-1.01,5.655-4.269,7.373-6.879S38.82,29.306,36.623,27.1Z" transform="translate(-11.697 -10.388)" fill="none" stroke="#000" stroke-linecap="round" stroke-linejoin="round" stroke-width="3"/>
    <path id="Path_5924" data-name="Path 5924" d="M52.373,45,45,52.373V47.949A2.949,2.949,0,0,1,47.949,45Z" transform="translate(-18.459 -15.524)" fill="none" stroke="#000" stroke-linecap="round" stroke-linejoin="round" stroke-width="3"/>
    <path id="Path_5925" data-name="Path 5925" d="M39.965,9a2.949,2.949,0,0,1,2.949,2.949V17.11H9V11.949A2.949,2.949,0,0,1,11.949,9" transform="translate(-9 -6.065)" fill="none" stroke="#000" stroke-linecap="round" stroke-linejoin="round" stroke-width="3"/>
    <line id="Line_125" data-name="Line 125" x2="19.721" transform="translate(7.188 2.935)" fill="none" stroke="#000" stroke-linecap="round" stroke-linejoin="round" stroke-width="3"/>
    <rect id="Rectangle_790" data-name="Rectangle 790" width="1.574" height="3.934" rx="0.787" transform="translate(4.473 -0.102)" fill="none" stroke="#000" stroke-linecap="round" stroke-linejoin="round" stroke-width="3"/>
    <rect id="Rectangle_791" data-name="Rectangle 791" width="2.36" height="3.934" rx="1.18" transform="translate(27.65 -0.102)" fill="none" stroke="#000" stroke-linecap="round" stroke-linejoin="round" stroke-width="3"/>
  </g>
</svg>
