<svg xmlns="http://www.w3.org/2000/svg" width="24.884" height="30.627" viewBox="0 0 24.884 30.627">
  <g id="trash" transform="translate(-48)">
    <path id="Path_14872" data-name="Path 14872" d="M70.491,3.828H65.228V2.871A2.875,2.875,0,0,0,62.356,0H58.528a2.875,2.875,0,0,0-2.871,2.871v.957H50.393A2.4,2.4,0,0,0,48,6.221v3.35a.957.957,0,0,0,.957.957h.523l.827,17.364a2.868,2.868,0,0,0,2.868,2.735H67.709a2.868,2.868,0,0,0,2.868-2.735L71.4,10.528h.523a.957.957,0,0,0,.957-.957V6.221A2.4,2.4,0,0,0,70.491,3.828ZM57.571,2.871a.958.958,0,0,1,.957-.957h3.828a.958.958,0,0,1,.957.957v.957H57.571Zm-7.657,3.35a.479.479,0,0,1,.479-.479h20.1a.479.479,0,0,1,.479.479V8.614H49.914ZM68.665,27.8a.956.956,0,0,1-.956.912H53.175a.956.956,0,0,1-.956-.912L51.4,10.528H69.488Z" fill="#ff3b30"/>
    <path id="Path_14873" data-name="Path 14873" d="M240.957,222.356a.957.957,0,0,0,.957-.957V208.957a.957.957,0,1,0-1.914,0V221.4A.957.957,0,0,0,240.957,222.356Z" transform="translate(-180.515 -195.558)" fill="#ff3b30"/>
    <path id="Path_14874" data-name="Path 14874" d="M320.957,222.356a.957.957,0,0,0,.957-.957V208.957a.957.957,0,0,0-1.914,0V221.4A.957.957,0,0,0,320.957,222.356Z" transform="translate(-255.73 -195.558)" fill="#ff3b30"/>
    <path id="Path_14875" data-name="Path 14875" d="M160.957,222.356a.957.957,0,0,0,.957-.957V208.957a.957.957,0,1,0-1.914,0V221.4A.957.957,0,0,0,160.957,222.356Z" transform="translate(-105.3 -195.558)" fill="#ff3b30"/>
  </g>
</svg>
