<svg xmlns="http://www.w3.org/2000/svg" width="28.707" height="28.563" viewBox="0 0 28.707 28.563">
  <g id="edit" transform="translate(0 -0.261)">
    <path id="Path_14876" data-name="Path 14876" d="M26.5,54.315a.715.715,0,0,0-.715.715v6.348a2.147,2.147,0,0,1-2.145,2.145H3.575A2.147,2.147,0,0,1,1.43,61.378V42.747A2.147,2.147,0,0,1,3.575,40.6H9.923a.715.715,0,0,0,0-1.43H3.575A3.579,3.579,0,0,0,0,42.747V61.378a3.579,3.579,0,0,0,3.575,3.575H23.636a3.579,3.579,0,0,0,3.575-3.575V55.03a.715.715,0,0,0-.715-.715Zm0,0" transform="translate(0 -36.129)" fill="#4cd964"/>
    <path id="Path_14877" data-name="Path 14877" d="M127.382,1.2a3.217,3.217,0,0,0-4.55,0L110.077,13.958a.715.715,0,0,0-.183.315l-1.677,6.056a.715.715,0,0,0,.88.88l6.056-1.678a.715.715,0,0,0,.315-.183L128.221,6.592a3.221,3.221,0,0,0,0-4.55Zm-15.748,13.22,10.439-10.44,3.367,3.367L115,17.79Zm-.673,1.349,2.69,2.69-3.721,1.031ZM127.21,5.581l-.758.758-3.367-3.367.759-.758a1.787,1.787,0,0,1,2.527,0l.839.839A1.79,1.79,0,0,1,127.21,5.581Zm0,0" transform="translate(-100.455 0)" fill="#4cd964"/>
  </g>
</svg>
