<svg xmlns="http://www.w3.org/2000/svg" xmlns:xlink="http://www.w3.org/1999/xlink" width="22.531" height="15.959" viewBox="0 0 22.531 15.959">
  <defs>
    <clipPath id="clip-path">
      <rect width="22.531" height="15.959" fill="none"/>
    </clipPath>
  </defs>
  <g id="_8-Email" data-name="8-Email" clip-path="url(#clip-path)">
    <g id="_8-Email-2" data-name="8-Email" transform="translate(0 -7)">
      <path id="Path_5917" data-name="Path 5917" d="M21.123,7H1.408A1.408,1.408,0,0,0,0,8.408V21.551a1.408,1.408,0,0,0,1.408,1.408H21.123a1.408,1.408,0,0,0,1.408-1.408V8.408A1.408,1.408,0,0,0,21.123,7Zm-.3.939-9.557,7.388L1.709,7.939ZM.939,21.359V8.53l7.233,5.591Zm.662.662L8.919,14.7l2.056,1.591a.469.469,0,0,0,.573,0L13.612,14.7l7.318,7.318Zm19.992-.662-7.233-7.238L21.592,8.53Z" transform="translate(0)" fill="#8e96af"/>
    </g>
  </g>
</svg>
