<svg xmlns="http://www.w3.org/2000/svg" width="15.893" height="14.259" viewBox="0 0 15.893 14.259">
  <g id="iconfinder_Review_6457542" transform="translate(-48 -69.395)">
    <path id="Path_5953" data-name="Path 5953" d="M170.123,122.278l-2.075-.3-.928-1.88a.306.306,0,0,0-.548,0l-.928,1.88-2.075.3a.306.306,0,0,0-.17.521l1.5,1.463-.354,2.066a.306.306,0,0,0,.444.322l1.856-.975,1.856.975a.306.306,0,0,0,.444-.322l-.354-2.066,1.5-1.463a.306.306,0,0,0-.17-.521Zm-1.874,1.659a.306.306,0,0,0-.088.27l.277,1.614-1.45-.762a.3.3,0,0,0-.284,0l-1.45.762.277-1.614a.306.306,0,0,0-.088-.27l-1.173-1.143,1.621-.236a.305.305,0,0,0,.23-.167l.725-1.469.725,1.469a.306.306,0,0,0,.23.167l1.621.236Z" transform="translate(-110.903 -48.601)"/>
    <path id="Path_5954" data-name="Path 5954" d="M61.948,69.395h-12A1.947,1.947,0,0,0,48,71.339v7.145a1.947,1.947,0,0,0,1.945,1.945h3.419v2.918a.306.306,0,0,0,.522.216l3.134-3.134h4.929a1.947,1.947,0,0,0,1.945-1.945V71.339A1.947,1.947,0,0,0,61.948,69.395Zm1.334,9.09a1.335,1.335,0,0,1-1.334,1.334H56.893a.306.306,0,0,0-.216.089l-2.7,2.7V80.124a.306.306,0,0,0-.306-.306H49.945a1.335,1.335,0,0,1-1.334-1.334V71.339a1.335,1.335,0,0,1,1.334-1.334h12a1.335,1.335,0,0,1,1.334,1.334Z"/>
  </g>
</svg>
