<svg xmlns="http://www.w3.org/2000/svg" width="18.466" height="18.465" viewBox="0 0 18.466 18.465">
  <g id="Layer_1" data-name="Layer 1" transform="translate(0)">
    <path id="Path_5926" data-name="Path 5926" d="M23.077,0a3.077,3.077,0,0,0-.308,6.14V18.158a.308.308,0,1,0,.616,0V6.14A3.077,3.077,0,0,0,23.077,0Zm0,5.54a2.462,2.462,0,1,1,2.462-2.462A2.462,2.462,0,0,1,23.077,5.54Z" transform="translate(-13.845 0)"/>
    <path id="Path_5927" data-name="Path 5927" d="M43.077,20a3.077,3.077,0,0,0-.308,6.14V32a.308.308,0,1,0,.616,0V26.14A3.077,3.077,0,0,0,43.077,20Zm0,5.54a2.462,2.462,0,1,1,2.462-2.462A2.462,2.462,0,0,1,43.077,25.54Z" transform="translate(-27.69 -13.845)"/>
    <path id="Path_5928" data-name="Path 5928" d="M3.077,16a3.077,3.077,0,0,0-.308,6.14v7.094a.308.308,0,1,0,.616,0V22.14A3.077,3.077,0,0,0,3.077,16Zm0,5.54a2.462,2.462,0,1,1,2.462-2.462A2.462,2.462,0,0,1,3.077,21.54Z" transform="translate(0 -11.076)"/>
    <path id="Path_5929" data-name="Path 5929" d="M25.847,4a1.847,1.847,0,1,0,1.847,1.847A1.847,1.847,0,0,0,25.847,4Zm0,3.078a1.231,1.231,0,1,1,1.231-1.231A1.231,1.231,0,0,1,25.847,7.078Z" transform="translate(-16.614 -2.769)"/>
    <path id="Path_5930" data-name="Path 5930" d="M45.847,24a1.847,1.847,0,1,0,1.847,1.847A1.847,1.847,0,0,0,45.847,24Zm0,3.078a1.231,1.231,0,1,1,1.231-1.231A1.231,1.231,0,0,1,45.847,27.078Z" transform="translate(-30.459 -16.614)"/>
    <path id="Path_5931" data-name="Path 5931" d="M5.847,20a1.847,1.847,0,1,0,1.847,1.847A1.847,1.847,0,0,0,5.847,20Zm0,3.078a1.231,1.231,0,1,1,1.231-1.231A1.231,1.231,0,0,1,5.847,23.078Z" transform="translate(-2.769 -13.845)"/>
  </g>
</svg>
