<svg xmlns="http://www.w3.org/2000/svg" width="17.993" height="18" viewBox="0 0 17.993 18">
  <path id="iconfinder___Profile_1904670" d="M17.993,17.106A4.023,4.023,0,0,0,13.975,13.1H12.031a.26.26,0,0,1-.263-.257V11.367l.776-.95a2.087,2.087,0,0,0,.47-1.316V8.444a1.125,1.125,0,0,0,.762-1.064V6.255a1.125,1.125,0,0,0-.7-1.043V4.75a1.9,1.9,0,0,0,1.168-2.925A.422.422,0,0,0,13.6,1.76a1.057,1.057,0,0,1-.246.176A1.9,1.9,0,0,0,12.63.318.422.422,0,0,0,12,.45a1.046,1.046,0,0,1-.422.422A4.077,4.077,0,0,0,4.92,4.033V5.212a1.125,1.125,0,0,0-.7,1.043V7.38a1.125,1.125,0,0,0,.762,1.064V9.1a2.089,2.089,0,0,0,.47,1.316l.776.95v1.476a.26.26,0,0,1-.263.257H4.017A4.025,4.025,0,0,0,0,17.119v.409a.422.422,0,0,0,.422.422h17.15a.422.422,0,0,0,.422-.422Zm-17.15,0a3.178,3.178,0,0,1,3.174-3.161H5.962a1.1,1.1,0,0,0,1.106-1.1V11.218a.422.422,0,0,0-.1-.267L6.1,9.884A1.243,1.243,0,0,1,5.82,9.1V8.083A.422.422,0,0,0,5.4,7.661H5.342a.281.281,0,0,1-.281-.281V6.255a.281.281,0,0,1,.281-.281.422.422,0,0,0,.422-.422V4.033A3.233,3.233,0,0,1,11.2,1.673a.422.422,0,0,0,.409.1,1.892,1.892,0,0,0,.779-.454,1.056,1.056,0,0,1,.014.97.422.422,0,0,0,.353.61,1.909,1.909,0,0,0,.952-.194,1.054,1.054,0,0,1-.29.94,1.026,1.026,0,0,1-.77.306.443.443,0,0,0-.3.121.422.422,0,0,0-.127.3V5.553a.422.422,0,0,0,.422.422.281.281,0,0,1,.281.281V7.38a.281.281,0,0,1-.281.281h-.059a.422.422,0,0,0-.422.422V9.1a1.241,1.241,0,0,1-.281.783l-.862,1.067a.422.422,0,0,0-.1.267v1.625a1.1,1.1,0,0,0,1.106,1.1h1.944a3.178,3.178,0,0,1,3.174,3.163Z" transform="translate(0 0.051)"/>
</svg>
