<svg xmlns="http://www.w3.org/2000/svg" xmlns:xlink="http://www.w3.org/1999/xlink" width="15.978" height="14.239" viewBox="0 0 15.978 14.239">
  <defs>
    <clipPath id="clip-path">
      <rect width="15.978" height="14.239" fill="none"/>
    </clipPath>
  </defs>
  <g id="Repeat_Grid_5" data-name="Repeat Grid 5" clip-path="url(#clip-path)">
    <g transform="translate(-36 -409)">
      <path id="iconfinder_07.Wallet_290143" d="M16.978,16.508h0a1.736,1.736,0,0,1-1.737,1.737H2.737A1.736,1.736,0,0,1,1,16.508V6.435A1.389,1.389,0,0,1,2.389,5.046H9.4l2.813-1.019a.344.344,0,0,1,.44.2l.3.815H14.2a1.389,1.389,0,0,1,1.389,1.389V7.13h0a1.389,1.389,0,0,1,1.389,1.389ZM2.389,5.741h0a.695.695,0,0,0,0,1.389H3.652s.007-.006.012-.007L7.478,5.741Zm10.1.063-.369-1.016h0l-.712.258h0l-1.915.695h0L5.656,7.13h7.316Zm2.4.632a.7.7,0,0,0-.695-.695h-1L13.7,7.13h1.191Zm.695,1.389H2.389a1.374,1.374,0,0,1-.695-.193v8.876a1.042,1.042,0,0,0,1.042,1.042h12.5a1.042,1.042,0,0,0,1.042-1.042V14.077H14.894a1.389,1.389,0,1,1,0-2.779h1.389V8.519A.7.7,0,0,0,15.589,7.825Zm.695,5.558V11.993H14.894a.695.695,0,1,0,0,1.389ZM14.894,12.34h.695v.695h-.695Z" transform="translate(35 404.994)" fill-rule="evenodd"/>
    </g>
  </g>
</svg>
