<svg xmlns="http://www.w3.org/2000/svg" width="25.962" height="41.894" viewBox="0 0 25.962 41.894">
  <g id="iconfinder_Tilda_Icons_1ed_location_3586361" transform="translate(1 1)">
    <path id="Path_5918" data-name="Path 5918" d="M39.088,33.957l6.7-10.766a.61.61,0,0,0,.054-.109,11.964,11.964,0,1,0-20.392,0,.69.69,0,0,0,.048.1l6.455,10.8c-5.011.708-8.306,2.769-8.306,5.268,0,3.1,5.263,5.522,11.981,5.522S47.6,42.348,47.6,39.252C47.6,36.741,44.155,34.634,39.088,33.957ZM26.648,22.481a10.624,10.624,0,1,1,17.986,0,.645.645,0,0,0-.055.111L37.5,33.965c-.106.163-.127.2-.257.414L35.461,37.25,26.708,22.6A.673.673,0,0,0,26.648,22.481Zm8.975,20.953c-6.271,0-10.641-2.2-10.641-4.183,0-1.8,3.291-3.487,7.718-4.011l2.175,3.64a.669.669,0,0,0,.569.326h.006a.671.671,0,0,0,.569-.316L38.3,35.215c4.5.487,7.959,2.222,7.959,4.037C46.264,41.23,41.894,43.434,35.623,43.434Z" transform="translate(-23.642 -4.88)" stroke="#000" stroke-width="2"/>
    <path id="Path_5919" data-name="Path 5919" d="M49.431,26.279a4.35,4.35,0,1,0-4.35,4.35A4.355,4.355,0,0,0,49.431,26.279Zm-7.36,0a3.01,3.01,0,1,1,3.01,3.01A3.014,3.014,0,0,1,42.071,26.279Z" transform="translate(-33.1 -14.316)" stroke="#000" stroke-width="2"/>
  </g>
</svg>
