<svg xmlns="http://www.w3.org/2000/svg" width="42.15" height="59.85" viewBox="0 0 42.15 59.85">
  <g id="Group_66120" data-name="Group 66120" transform="translate(-686.72 -1533.226)">
    <path id="Path_6005" data-name="Path 6005" d="M647,680.11a2.47,2.47,0,0,1-.6-.08l-18.95-5.62a2.09,2.09,0,0,1-1.5-2V644.32a2.1,2.1,0,0,1,2.1-2.1H666a2.1,2.1,0,0,1,2.1,2.1v28.07a2.09,2.09,0,0,1-1.5,2l-19,5.61a2.468,2.468,0,0,1-.6.11Zm-16.84-9.29,16.84,5,16.84-5V646.43H630.16Z" transform="translate(60.77 912.966)" fill="#333"/>
    <path id="Path_6006" data-name="Path 6006" d="M661.74,644h-4.21v-9a10.53,10.53,0,0,0-21.06,0v8.91h-4.21V635a14.74,14.74,0,1,1,29.48,0Z" transform="translate(60.77 912.966)" fill="#333"/>
    <path id="Path_6007" data-name="Path 6007" d="M647,666.08a2.11,2.11,0,0,1-2.11-2.11v-5.61a2.11,2.11,0,1,1,4.22,0V664a2.11,2.11,0,0,1-2.11,2.08Z" transform="translate(60.77 912.966)" fill="#333"/>
  </g>
</svg>
