<svg xmlns="http://www.w3.org/2000/svg" width="40.18" height="58.497" viewBox="0 0 40.18 58.497">
  <g id="Group_2" data-name="Group 2" transform="translate(-134.64 -1191.25)">
    <g id="Group_1" data-name="Group 1" transform="translate(134.894 1191.5)">
      <path id="Path_2" data-name="Path 2" d="M26.338,45.247a5.411,5.411,0,1,0,5.411,5.411A5.4,5.4,0,0,0,26.338,45.247Zm0,0a5.411,5.411,0,1,0,5.411,5.411A5.4,5.4,0,0,0,26.338,45.247Zm0,0a5.411,5.411,0,1,0,5.411,5.411A5.4,5.4,0,0,0,26.338,45.247Zm0,0a5.411,5.411,0,1,0,5.411,5.411A5.4,5.4,0,0,0,26.338,45.247Zm0,0a5.411,5.411,0,1,0,5.411,5.411A5.4,5.4,0,0,0,26.338,45.247Zm13.24-9.38-.613-.541v-10.2a12.627,12.627,0,1,0-25.253,0v10.2l-.613.541c-.541.505-1.046,1.01-1.551,1.551a19.837,19.837,0,1,0,28.031-1.551ZM17.319,25.127a9.019,9.019,0,1,1,18.038,0V32.8l-2.417-.866A17.967,17.967,0,0,0,26.3,30.816a19.322,19.322,0,0,0-6.566,1.118l-2.417.866Zm9.019,41.766A16.234,16.234,0,1,1,42.572,50.658,16.259,16.259,0,0,1,26.338,66.892Zm0-21.646a5.411,5.411,0,1,0,5.411,5.411A5.4,5.4,0,0,0,26.338,45.247Zm0,0a5.411,5.411,0,1,0,5.411,5.411A5.4,5.4,0,0,0,26.338,45.247Zm0,0a5.411,5.411,0,1,0,5.411,5.411A5.4,5.4,0,0,0,26.338,45.247Zm0,0a5.411,5.411,0,1,0,5.411,5.411A5.4,5.4,0,0,0,26.338,45.247Z" transform="translate(-6.502 -12.5)" fill="#f48a7b" stroke="#f48a7b" stroke-width="0.5"/>
    </g>
  </g>
</svg>
