<svg xmlns="http://www.w3.org/2000/svg" width="50.696" height="50.376" viewBox="0 0 50.696 50.376">
  <g id="iconfinder_Door_enter_entrance_exit_leave_logout_out_quit_4831032" transform="matrix(-1, -0.017, 0.017, -1, 49.824, 50.376)">
    <path id="Path_5957" data-name="Path 5957" d="M22,2H1A1,1,0,0,1,1,0H22a1,1,0,0,1,0,2Z" transform="translate(26 19)" fill="#010101"/>
    <path id="Path_5958" data-name="Path 5958" d="M21,50a1,1,0,0,1-.45-.11L1.66,40.45A3,3,0,0,1,0,37.76V3A3,3,0,0,1,3,0h9a1,1,0,0,1,0,2H4.34l17.09,8.1A1,1,0,0,1,22,11V49a1,1,0,0,1-1,1ZM2,3.11V37.76a1,1,0,0,0,.55.9L20,47.38V11.63Z" fill="#010101"/>
    <path id="Path_5959" data-name="Path 5959" d="M1.006,20a1,1,0,0,1-.71-1.71L8.6,10,.3,1.714A1,1,0,0,1,1.716.294l9,9a1,1,0,0,1,0,1.42l-9,9A1,1,0,0,1,1.006,20Z" transform="translate(38.994 9.996)" fill="#010101"/>
    <path id="Path_5960" data-name="Path 5960" d="M10,12H1a1,1,0,0,1,0-2h9a1,1,0,0,0,1-1V1a1,1,0,0,1,2,0V9A3,3,0,0,1,10,12Z" transform="translate(20 28)" fill="#010101"/>
    <path id="Path_5961" data-name="Path 5961" d="M25,12a1,1,0,0,1-1-1V3a1,1,0,0,0-1-1H1A1,1,0,0,1,1,0H23a3,3,0,0,1,3,3v8A1,1,0,0,1,25,12Z" transform="translate(7)" fill="#010101"/>
  </g>
</svg>
