<svg xmlns="http://www.w3.org/2000/svg" width="54.912" height="48.349" viewBox="0 0 54.912 48.349">
  <path id="Path_1" data-name="Path 1" d="M16.927,2h-42.72A5.852,5.852,0,0,0-31.64,7.845V35.9a5.852,5.852,0,0,0,5.847,5.845h13.764a.531.531,0,0,1,.426.215l5.022,6.809a2.632,2.632,0,0,0,2.127,1.079h.012a2.636,2.636,0,0,0,2.124-1.06l5.134-6.83a.533.533,0,0,1,.426-.213H16.927A5.852,5.852,0,0,0,22.772,35.9V7.845A5.852,5.852,0,0,0,16.927,2Zm2.658,33.9a2.573,2.573,0,0,1-.1.723L3.106,22.269,19.585,8.594ZM16.927,5.189a2.659,2.659,0,0,1,1.335.359L-2.732,22.97a2.657,2.657,0,0,1-3.393,0l-21-17.424a2.639,2.639,0,0,1,1.33-.356ZM-28.35,36.624a2.661,2.661,0,0,1-.1-.723V8.586l16.482,13.678ZM.268,40.042-4.438,46.3l-4.6-6.235a3.741,3.741,0,0,0-3-1.512H-25.719l16.235-14.23,1.323,1.1a5.833,5.833,0,0,0,3.732,1.345A5.833,5.833,0,0,0-.7,25.425L.622,24.331,16.85,38.557H3.242A3.737,3.737,0,0,0,.268,40.042Z" transform="translate(31.89 -1.75)" fill="#f48a7b" stroke="#f48a7b" stroke-miterlimit="10" stroke-width="0.5"/>
</svg>
