<svg xmlns="http://www.w3.org/2000/svg" width="14.914" height="14.914" viewBox="0 0 14.914 14.914">
  <g id="Grid_1_" transform="translate(0.4 0.4)">
    <path id="Path_5947" data-name="Path 5947" d="M11.48,11.48H5v-5.2A1.287,1.287,0,0,1,6.283,5h5.2Z" transform="translate(-5 -5)" fill="none" stroke="#f48a7b" stroke-miterlimit="10" stroke-width="0.8"/>
    <path id="Path_5948" data-name="Path 5948" d="M23.38,11.48H16.9V5h5.2A1.287,1.287,0,0,1,23.38,6.283Z" transform="translate(-9.266 -5)" fill="none" stroke="#f48a7b" stroke-miterlimit="10" stroke-width="0.8"/>
    <path id="Path_5949" data-name="Path 5949" d="M22.1,23.38H16.9V16.9h6.48v5.2A1.287,1.287,0,0,1,22.1,23.38Z" transform="translate(-9.266 -9.266)" fill="none" stroke="#f48a7b" stroke-miterlimit="10" stroke-width="0.8"/>
    <path id="Path_5950" data-name="Path 5950" d="M11.48,23.38h-5.2A1.287,1.287,0,0,1,5,22.1V16.9h6.48Z" transform="translate(-5 -9.266)" fill="none" stroke="#f48a7b" stroke-miterlimit="10" stroke-width="0.8"/>
  </g>
</svg>
