<svg id="iconfinder_user_male4_172628" xmlns="http://www.w3.org/2000/svg" width="23.5" height="23.5" viewBox="0 0 23.5 23.5">
  <circle id="Ellipse_147" data-name="Ellipse 147" cx="11" cy="11" r="11" transform="translate(1 1)" fill="none" stroke="#8e96af" stroke-linecap="round" stroke-miterlimit="10" stroke-width="1"/>
  <rect id="Rectangle_789" data-name="Rectangle 789" width="23" height="23" fill="none"/>
  <path id="Path_5921" data-name="Path 5921" d="M18.586,20.53a19.3,19.3,0,0,1-.042-1.966A3.848,3.848,0,0,0,19.6,16.281c.268-.022.691-.283.814-1.316a.964.964,0,0,0-.36-.964c.436-1.312,1.342-5.369-1.675-5.789a2.373,2.373,0,0,0-2.139-.821c-4.134.076-4.633,3.122-3.727,6.61a.966.966,0,0,0-.36.964c.124,1.032.546,1.294.814,1.316a3.839,3.839,0,0,0,1.08,2.282A19.306,19.306,0,0,1,14,20.53c-.589,1.583-3.613,1.707-5.357,3.233a11.417,11.417,0,0,0,7.9,3.15c3.119,0,6.786-2.463,7.4-3.135C22.207,22.238,19.176,22.118,18.586,20.53Z" transform="translate(-4.609 -3.94)" fill="none" stroke="#8e96af" stroke-linecap="round" stroke-miterlimit="10" stroke-width="1"/>
</svg>
