<svg xmlns="http://www.w3.org/2000/svg" width="16.819" height="16.819" viewBox="0 0 16.819 16.819">
  <g id="iconfinder_user_male4_172628" transform="translate(0.25 0.25)">
    <circle id="Ellipse_151" data-name="Ellipse 151" cx="8.159" cy="8.159" r="8.159" fill="none" stroke="#000" stroke-linecap="round" stroke-miterlimit="10" stroke-width="0.5"/>
    <rect id="Rectangle_801" data-name="Rectangle 801" width="16.319" height="16.319" fill="none"/>
    <path id="Path_5952" data-name="Path 5952" d="M15.89,16.966a14.067,14.067,0,0,1-.031-1.433,2.8,2.8,0,0,0,.769-1.663c.2-.016.5-.207.593-.959a.7.7,0,0,0-.262-.7c.318-.956.978-3.913-1.221-4.219a1.729,1.729,0,0,0-1.559-.6c-3.013.055-3.376,2.275-2.716,4.817a.7.7,0,0,0-.262.7c.091.752.4.943.593.959a2.8,2.8,0,0,0,.787,1.663,14.071,14.071,0,0,1-.031,1.433c-.429,1.154-2.633,1.244-3.9,2.356a8.32,8.32,0,0,0,5.757,2.3,9.687,9.687,0,0,0,5.39-2.284C18.529,18.211,16.32,18.124,15.89,16.966Z" transform="translate(-5.704 -5.299)" fill="none" stroke="#000" stroke-linecap="round" stroke-miterlimit="10" stroke-width="0.5"/>
  </g>
</svg>
