<svg xmlns="http://www.w3.org/2000/svg" xmlns:xlink="http://www.w3.org/1999/xlink" width="63.983"
    height="38.557" viewBox="0 0 63.983 38.557">
    <defs>
        <clipPath id="clip-path">
            <rect id="Rectangle_1" data-name="Rectangle 1" width="63.983" height="38.39"
                fill="none" />
        </clipPath>
    </defs>
    <g id="Group_66119" data-name="Group 66119" transform="translate(-64 -139.469)">
        <g id="Group_2" data-name="Group 2" transform="translate(64 139.469)">
            <g id="Group_1" data-name="Group 1" transform="translate(0 0)"
                clip-path="url(#clip-path)">
                <path id="Path_6" data-name="Path 6"
                    d="M391.582,247.452l-1.551-8.534a.939.939,0,1,0-1.848.336l1.551,8.535a3.132,3.132,0,0,1-2.518,3.646l-6.047,1.132a.939.939,0,0,0,.172,1.863c.057,0,6.218-1.148,6.218-1.148a5.011,5.011,0,0,0,4.024-5.83Zm0,0"
                    transform="translate(-327.682 -221.927)" />
                <path id="Path_7" data-name="Path 7"
                    d="M180.338,171.4l-20.818,3.82a3.13,3.13,0,0,1-3.646-2.514l-3.154-17.188a3.135,3.135,0,0,1,2.514-3.646l31.3-5.744a3.131,3.131,0,0,1,3.644,2.515l.8,4.356a.939.939,0,1,0,1.848-.338l-.8-4.356a5.01,5.01,0,0,0-5.831-4.024l-.089.016-.142-.774a4.538,4.538,0,0,0-5.282-3.644l-32.229,5.914a4.543,4.543,0,0,0-3.644,5.282l3.325,18.118a4.536,4.536,0,0,0,5.282,3.644l.553-.1.057.311a5.009,5.009,0,0,0,5.833,4.023l20.817-3.82a.939.939,0,0,0-.338-1.848Zm-27.261-.412a2.662,2.662,0,0,1-3.1-2.135l-3.324-18.118a2.662,2.662,0,0,1,2.135-3.1l32.228-5.913a2.658,2.658,0,0,1,3.1,2.135l.142.774L154.9,150.021a5.016,5.016,0,0,0-4.024,5.833l2.758,15.03Zm0,0"
                    transform="translate(-131.282 -139.966)" />
                <path id="Path_8" data-name="Path 8"
                    d="M264.715,223.547a8.3,8.3,0,1,0,8.3-8.3,8.31,8.31,0,0,0-8.3,8.3Zm14.723,0a6.422,6.422,0,1,1-6.423-6.422,6.43,6.43,0,0,1,6.423,6.422Zm0,0"
                    transform="translate(-231.271 -202.842)" />
                <path id="Path_9" data-name="Path 9"
                    d="M65.163,284.449l5.665-1.384a.939.939,0,0,0-.446-1.825l-5.665,1.384a.94.94,0,0,0,.222,1.852.95.95,0,0,0,.224-.027Zm0,0"
                    transform="translate(-64 -257.817)" />
            </g>
        </g>
        <path id="Path_10" data-name="Path 10"
            d="M114.453,341.931l-5.665,1.384a.939.939,0,1,0,.447,1.825l5.665-1.384a.939.939,0,0,0-.446-1.825Zm0,0"
            transform="translate(-36.729 -168.927)" />
        <path id="Path_11" data-name="Path 11"
            d="M82.584,307.682l-8.812,2.266a.94.94,0,1,0,.468,1.82l8.812-2.266a.939.939,0,1,0-.467-1.82Zm0,0"
            transform="translate(-7.556 -140.382)" />
        <path id="Path_12" data-name="Path 12"
            d="M126.135,275.638a.954.954,0,0,0,.217-.025l1.19-.282a.939.939,0,0,0-.432-1.828l-1.191.282a.939.939,0,0,0,.215,1.854Zm0,0"
            transform="translate(-50.999 -111.901)" />
        <path id="Path_13" data-name="Path 13"
            d="M70.772,357.926l-2.14.5a.939.939,0,0,0,.214,1.854.95.95,0,0,0,.216-.025l2.14-.5a.939.939,0,0,0-.43-1.829Zm0,0"
            transform="translate(-3.256 -182.258)" />
    </g>
</svg>
