<svg xmlns="http://www.w3.org/2000/svg" width="61.706" height="95.737" viewBox="0 0 61.706 95.737">
  <g id="loss" transform="translate(61.706 95.737) rotate(180)">
    <path id="Path_16" data-name="Path 16" d="M61.706,30.853A30.853,30.853,0,1,0,22.438,60.539V73.3H14.024a2.8,2.8,0,0,0-1.983,4.788L28.87,94.916a2.8,2.8,0,0,0,3.966,0L49.665,78.087A2.8,2.8,0,0,0,47.682,73.3H39.267V60.539A30.909,30.909,0,0,0,61.706,30.853Zm-56.1,0A25.243,25.243,0,1,1,30.853,56.1,25.272,25.272,0,0,1,5.61,30.853ZM36.462,78.908H40.91L30.853,88.966,20.8,78.908h4.448a2.8,2.8,0,0,0,2.8-2.8V61.577c.924.083,1.859.129,2.8.129s1.881-.045,2.8-.129V76.1A2.8,2.8,0,0,0,36.462,78.908Zm0,0" fill="#8e96af"/>
    <path id="Path_17" data-name="Path 17" d="M11.189,36.462v-4.1A8.414,8.414,0,0,0,8.414,16.007a2.8,2.8,0,1,1,2.8-2.8,2.8,2.8,0,1,0,5.61,0,8.427,8.427,0,0,0-5.64-7.942V2.8a2.8,2.8,0,0,0-5.61,0V5.281A8.414,8.414,0,0,0,8.414,21.617a2.8,2.8,0,1,1-2.8,2.8,2.8,2.8,0,1,0-5.61,0,8.429,8.429,0,0,0,5.58,7.922v4.119a2.8,2.8,0,1,0,5.61,0Zm0,0" transform="translate(22.468 11.219)" fill="#8e96af"/>
  </g>
</svg>
