<svg xmlns="http://www.w3.org/2000/svg" width="909" height="908.999" viewBox="0 0 909 908.999">
    <path id="Subtraction_2" data-name="Subtraction 2"
        d="M454.5,908.5a461.32,461.32,0,0,1-46.419-2.344A455.165,455.165,0,0,1,363,899.276c-14.626-2.993-29.264-6.757-43.509-11.187-14.084-4.381-28.118-9.517-41.712-15.267-13.466-5.7-26.819-12.128-39.686-19.118-12.776-6.94-25.37-14.591-37.432-22.741A456.5,456.5,0,0,1,78.036,708.336c-8.15-12.063-15.8-24.657-22.741-37.432-6.99-12.867-13.422-26.219-19.118-39.686-5.75-13.593-10.886-27.627-15.267-41.712C16.481,575.261,12.717,560.622,9.724,546a455.168,455.168,0,0,1-6.88-45.078,460.817,460.817,0,0,1,0-92.838A455.163,455.163,0,0,1,9.724,363c2.993-14.626,6.757-29.264,11.187-43.509,4.381-14.084,9.517-28.118,15.267-41.712,5.7-13.466,12.128-26.819,19.118-39.686,6.94-12.776,14.591-25.37,22.741-37.432A456.5,456.5,0,0,1,200.664,78.036c12.063-8.15,24.657-15.8,37.432-22.741,12.867-6.99,26.219-13.422,39.686-19.118,13.593-5.75,27.627-10.886,41.712-15.267C333.739,16.481,348.378,12.717,363,9.724a455.163,455.163,0,0,1,45.078-6.88,460.817,460.817,0,0,1,92.838,0A455.168,455.168,0,0,1,546,9.724c14.626,2.993,29.264,6.757,43.509,11.187,14.084,4.381,28.118,9.517,41.712,15.267,13.466,5.7,26.819,12.128,39.686,19.118,12.776,6.94,25.37,14.591,37.432,22.741A456.5,456.5,0,0,1,830.964,200.664c8.15,12.063,15.8,24.657,22.741,37.432,6.99,12.867,13.422,26.219,19.118,39.686,5.75,13.593,10.886,27.627,15.267,41.712,4.431,14.245,8.194,28.883,11.187,43.509a455.165,455.165,0,0,1,6.88,45.078,460.82,460.82,0,0,1,0,92.838A455.17,455.17,0,0,1,899.276,546c-2.993,14.626-6.757,29.264-11.187,43.509-4.381,14.084-9.517,28.118-15.267,41.712-5.7,13.466-12.128,26.819-19.118,39.686-6.94,12.776-14.591,25.37-22.741,37.432A456.5,456.5,0,0,1,708.336,830.964c-12.063,8.15-24.657,15.8-37.432,22.741-12.867,6.99-26.219,13.422-39.686,19.118-13.593,5.75-27.627,10.886-41.712,15.267-14.245,4.431-28.883,8.194-43.509,11.187a455.17,455.17,0,0,1-45.078,6.88A461.32,461.32,0,0,1,454.5,908.5ZM260.153,469.909a23.787,23.787,0,0,0-11.464,2.962,21.538,21.538,0,0,0-8.494,8.36,23.594,23.594,0,0,0-2.843,15.75,23.856,23.856,0,0,0,8.2,13.8c35.283,30.5,69.527,60.108,101.78,88,18.724,16.223,37.74,32.662,56.52,48.86a26.829,26.829,0,0,0,7.38,4.62,21.23,21.23,0,0,0,8.018,1.574,24.924,24.924,0,0,0,8.082-1.424,20.953,20.953,0,0,0,6.992-4.036,28.784,28.784,0,0,0,5.268-6.165c70.335-107.505,142.355-217.6,214.06-327.24.8-1.216,1.608-2.452,2.394-3.647l.073-.111c2.122-3.227,4.316-6.564,6.423-9.881.827-1.3,1.706-2.593,2.555-3.845,3.243-4.779,6.6-9.721,7.7-15.726v-5.74a4.055,4.055,0,0,1-.34-.9,21.926,21.926,0,0,0-5.691-11.685,21.6,21.6,0,0,0-11.009-6.735,28.078,28.078,0,0,0-6.106-.7c-8.026,0-14.784,3.856-19.544,11.152l-214.26,327.5-1.11,1.66-1.1-.89c-41.653-36.007-82.915-71.67-122.64-106-1.412-1.221-2.83-2.464-4.2-3.665-4.505-3.947-9.163-8.029-14-11.715A20.668,20.668,0,0,0,260.153,469.909Z"
        transform="translate(0 0)" fill="#fff" stroke="#707070" stroke-width="1" />
</svg>
