<svg id="iconfinder_Review_6457542" xmlns="http://www.w3.org/2000/svg" width="55.682" height="49.955" viewBox="0 0 55.682 49.955">
  <path id="Path_5954" data-name="Path 5954" d="M96.869,69.394H54.814A6.822,6.822,0,0,0,48,76.208v25.033a6.822,6.822,0,0,0,6.814,6.814H66.793v10.223a1.071,1.071,0,0,0,1.828.757L79.6,108.056H96.869a6.822,6.822,0,0,0,6.814-6.814V76.208A6.822,6.822,0,0,0,96.869,69.394Zm4.672,31.847a4.677,4.677,0,0,1-4.672,4.672H79.156a1.071,1.071,0,0,0-.757.314l-9.465,9.466v-8.709a1.071,1.071,0,0,0-1.071-1.071H54.814a4.677,4.677,0,0,1-4.672-4.672V76.208a4.677,4.677,0,0,1,4.672-4.672H96.869a4.677,4.677,0,0,1,4.672,4.672Z" transform="translate(-48 -69.394)"/>
</svg>
