<svg xmlns="http://www.w3.org/2000/svg" width="8.589" height="11.489" viewBox="0 0 8.589 11.489">
  <path id="Path_5932" data-name="Path 5932" d="M141.18,143.582v7.105c0,1.228,1.886,2.192,4.295,2.192s4.294-.963,4.294-2.192v-7.105c0-1.228-1.886-2.192-4.294-2.192S141.18,142.354,141.18,143.582Zm.559,3.462a6.9,6.9,0,0,0,7.469,0v1.275c0,.772-1.534,1.633-3.734,1.633s-3.734-.861-3.734-1.633Zm3.734.54c-2.2,0-3.734-.861-3.734-1.633v-1.275a6.9,6.9,0,0,0,7.469,0v1.275c0,.772-1.532,1.633-3.733,1.633Zm0,4.737c-2.2,0-3.734-.861-3.734-1.633v-1.275a6.9,6.9,0,0,0,7.469,0v1.275c0,.772-1.532,1.633-3.733,1.633Zm0-10.372c2.2,0,3.734.861,3.734,1.633s-1.534,1.633-3.734,1.633-3.734-.861-3.734-1.633,1.534-1.634,3.736-1.634Z" transform="translate(-141.18 -141.39)"/>
</svg>
