<svg xmlns="http://www.w3.org/2000/svg" width="69.376" height="67.487" viewBox="0 0 69.376 67.487">
  <g id="iconfinder_N_T_1216Artboard_1_copy_9_7088615" transform="translate(0.5 0.503)">
    <path id="Path_5932" data-name="Path 5932" d="M141.18,148.209v22.1c0,3.821,5.868,6.819,13.362,6.819s13.36-3,13.36-6.819v-22.1c0-3.821-5.868-6.819-13.36-6.819S141.18,144.388,141.18,148.209Zm1.74,10.77c2.276,2.056,6.573,3.416,11.617,3.416s9.344-1.36,11.617-3.416v3.965c0,2.4-4.772,5.081-11.617,5.081s-11.617-2.678-11.617-5.081Zm11.617,1.681c-6.85,0-11.617-2.678-11.617-5.081v-3.967c2.276,2.056,6.573,3.418,11.617,3.418s9.344-1.362,11.617-3.418v3.965c.008,2.4-4.765,5.081-11.613,5.081Zm0,14.736c-6.85,0-11.617-2.678-11.617-5.081v-3.967c2.276,2.056,6.573,3.416,11.617,3.416s9.344-1.36,11.617-3.416v3.965c.008,2.4-4.765,5.081-11.613,5.081Zm0-32.265c6.848,0,11.617,2.678,11.617,5.081s-4.772,5.081-11.617,5.081-11.617-2.678-11.617-5.081,4.772-5.083,11.622-5.083Z" transform="translate(-124.544 -125.689)" stroke="#000" stroke-width="1"/>
    <path id="Path_5933" data-name="Path 5933" d="M138.1,397.331a28.325,28.325,0,0,1-34.782,1.529h7.371a.87.87,0,1,0,0-1.74h-9.907l-.035.008a.745.745,0,0,0-.173.035.713.713,0,0,0-.153.043.75.75,0,0,0-.125.084.762.762,0,0,0-.153.115c0,.008-.02.012-.028.021a.754.754,0,0,0-.06.108.874.874,0,0,0-.087.153.916.916,0,0,0-.037.182.747.747,0,0,0-.023.116v9.905a.87.87,0,1,0,1.738,0v-8.121a30,30,0,0,0,37.574-1.113.87.87,0,1,0-1.127-1.325Z" transform="translate(-89.579 -342.328)" stroke="#000" stroke-width="1"/>
    <path id="Path_5934" data-name="Path 5934" d="M50.62,46.282l-3.669,6.362a.87.87,0,0,0,.318,1.188.857.857,0,0,0,.434.116.868.868,0,0,0,.754-.434l4.953-8.578a.034.034,0,0,1,.009-.028.814.814,0,0,0,.064-.193.445.445,0,0,0,.024-.286.979.979,0,0,0-.028-.19v-.029a.854.854,0,0,0-.054-.089.817.817,0,0,0-.107-.179.946.946,0,0,0-.11-.1.993.993,0,0,0-.113-.1L44.51,38.794a.87.87,0,1,0-.87,1.507l7.032,4.063a29.947,29.947,0,0,0-17.813,33.1.873.873,0,0,0,.856.714.9.9,0,0,0,.153-.014.868.868,0,0,0,.7-1.01A28.232,28.232,0,0,1,50.62,46.282Z" transform="translate(-32.35 -38.677)" stroke="#000" stroke-width="1"/>
    <path id="Path_5935" data-name="Path 5935" d="M316.958,99.255a.865.865,0,0,0-1.188-.318L308.72,103a28.935,28.935,0,0,0,.263-3.614,30.2,30.2,0,0,0-20.012-28.36.87.87,0,1,0-.581,1.633,28.461,28.461,0,0,1,18.854,26.727c0,.859-.049,1.73-.138,2.618l-3.681-6.376a.87.87,0,0,0-1.506.87l4.953,8.577v.008a.86.86,0,0,0,.306.306c.018.011.04.014.058.023a.776.776,0,0,0,.219.087.9.9,0,0,0,.153.014h0a.878.878,0,0,0,.434-.116l8.579-4.953a.87.87,0,0,0,.338-1.194Z" transform="translate(-248.7 -66.019)" stroke="#000" stroke-width="1"/>
  </g>
</svg>
